<?xml version="1.0" encoding="UTF-8"?>
<svg xmlns="http://www.w3.org/2000/svg" height="53" width="53" class="pyqrcode"><path stroke="#000" class="pyqrline" d="M4 4.5h7m2 0h3m2 0h1m3 0h1m1 0h2m2 0h2m1 0h1m2 0h1m2 0h1m2 0h1m1 0h7m-45 1h1m5 0h1m1 0h2m2 0h1m1 0h1m1 0h1m2 0h1m1 0h4m1 0h2m4 0h1m2 0h1m2 0h1m5 0h1m-45 1h1m1 0h3m1 0h1m2 0h8m2 0h1m1 0h1m2 0h3m3 0h4m1 0h1m2 0h1m1 0h3m1 0h1m-45 1h1m1 0h3m1 0h1m2 0h1m1 0h1m5 0h1m1 0h1m1 0h1m5 0h2m1 0h2m3 0h2m1 0h1m1 0h3m1 0h1m-45 1h1m1 0h3m1 0h1m3 0h16m1 0h1m1 0h2m2 0h4m1 0h1m1 0h3m1 0h1m-45 1h1m5 0h1m1 0h2m2 0h6m2 0h1m3 0h1m13 0h1m5 0h1m-45 1h7m1 0h1m1 0h1m1 0h1m1 0h1m1 0h1m1 0h1m1 0h1m1 0h1m1 0h1m1 0h1m1 0h1m1 0h1m1 0h1m1 0h1m1 0h1m1 0h7m-37 1h1m1 0h1m2 0h1m1 0h6m3 0h1m1 0h2m1 0h1m-26 1h4m2 0h2m2 0h2m1 0h1m2 0h7m1 0h3m1 0h3m3 0h2m3 0h1m-44 1h2m2 0h2m1 0h2m3 0h2m1 0h1m1 0h3m5 0h3m1 0h3m3 0h2m1 0h1m2 0h2m1 0h1m-44 1h3m2 0h2m1 0h3m6 0h9m1 0h1m3 0h2m2 0h2m1 0h2m2 0h1m-43 1h2m1 0h2m2 0h2m1 0h1m2 0h1m2 0h1m1 0h3m1 0h1m1 0h1m1 0h1m2 0h3m6 0h2m2 0h1m-44 1h1m2 0h1m2 0h3m1 0h1m1 0h1m1 0h1m1 0h3m2 0h1m1 0h1m1 0h1m1 0h3m2 0h1m1 0h6m1 0h2m1 0h1m-45 1h2m3 0h1m1 0h1m1 0h8m1 0h1m1 0h1m2 0h1m1 0h6m1 0h2m1 0h2m1 0h1m1 0h1m2 0h1m-41 1h2m1 0h3m3 0h1m2 0h2m2 0h1m2 0h1m1 0h2m2 0h1m4 0h1m2 0h3m2 0h1m1 0h1m-43 1h1m1 0h1m1 0h1m1 0h2m1 0h1m3 0h1m2 0h2m2 0h1m2 0h6m2 0h1m1 0h1m1 0h2m1 0h1m-40 1h3m2 0h2m3 0h2m2 0h1m3 0h1m2 0h1m1 0h2m1 0h1m2 0h1m1 0h3m4 0h2m1 0h1m1 0h1m-43 1h1m2 0h1m2 0h1m1 0h5m6 0h1m1 0h2m1 0h2m1 0h1m1 0h1m1 0h2m2 0h1m1 0h1m1 0h2m1 0h1m-44 1h1m2 0h4m1 0h4m1 0h2m2 0h2m1 0h5m4 0h1m1 0h4m3 0h1m3 0h2m-41 1h1m3 0h1m1 0h1m1 0h1m1 0h4m2 0h3m2 0h1m1 0h3m1 0h3m1 0h1m2 0h1m5 0h1m-44 1h1m2 0h6m1 0h1m3 0h1m1 0h2m2 0h5m7 0h1m3 0h6m1 0h1m-42 1h1m1 0h1m3 0h1m2 0h1m3 0h1m4 0h1m3 0h1m2 0h3m3 0h1m1 0h2m3 0h1m1 0h2m-43 1h1m1 0h2m1 0h1m1 0h3m3 0h2m1 0h4m1 0h1m1 0h1m4 0h1m1 0h1m1 0h1m1 0h2m1 0h1m1 0h1m2 0h1m-44 1h2m2 0h1m3 0h1m2 0h1m1 0h1m1 0h1m4 0h1m3 0h1m7 0h2m1 0h2m3 0h1m2 0h2m-45 1h1m2 0h6m1 0h3m3 0h2m1 0h7m2 0h1m3 0h2m2 0h5m-39 1h3m2 0h1m4 0h1m1 0h1m1 0h1m2 0h1m2 0h2m1 0h1m3 0h2m1 0h2m1 0h2m1 0h2m1 0h4m-44 1h1m1 0h1m1 0h2m2 0h1m2 0h1m2 0h2m3 0h1m2 0h2m2 0h5m1 0h1m2 0h2m1 0h2m1 0h2m-44 1h1m1 0h3m2 0h1m4 0h1m1 0h1m1 0h2m1 0h5m6 0h1m5 0h1m1 0h1m1 0h2m1 0h1m-44 1h5m1 0h1m2 0h1m1 0h2m4 0h1m2 0h2m2 0h1m1 0h1m1 0h3m1 0h3m2 0h1m1 0h3m1 0h1m-43 1h1m3 0h1m1 0h2m1 0h1m1 0h1m1 0h2m2 0h3m4 0h3m1 0h1m1 0h1m1 0h1m1 0h1m1 0h1m1 0h1m2 0h1m-43 1h1m1 0h2m1 0h2m2 0h3m1 0h1m8 0h1m2 0h2m3 0h1m5 0h2m1 0h3m1 0h1m-41 1h1m1 0h1m1 0h1m1 0h1m1 0h1m3 0h3m2 0h3m3 0h1m1 0h2m3 0h4m3 0h2m2 0h1m-45 1h3m1 0h1m1 0h2m1 0h1m3 0h1m4 0h1m1 0h4m1 0h2m2 0h1m2 0h3m2 0h5m2 0h1m-45 1h1m3 0h2m1 0h2m1 0h3m2 0h2m2 0h3m2 0h1m3 0h1m2 0h3m1 0h2m1 0h1m2 0h3m-40 1h1m1 0h2m1 0h1m1 0h2m3 0h3m1 0h1m1 0h1m1 0h1m1 0h2m4 0h2m1 0h1m3 0h3m1 0h1m-43 1h4m5 0h1m2 0h1m5 0h1m1 0h1m2 0h1m7 0h3m3 0h3m2 0h2m-45 1h1m2 0h2m1 0h4m1 0h1m1 0h2m1 0h1m1 0h1m1 0h5m1 0h1m1 0h2m2 0h3m1 0h6m1 0h2m-37 1h1m1 0h1m1 0h1m3 0h2m2 0h1m3 0h5m1 0h1m2 0h1m2 0h1m3 0h3m-43 1h7m1 0h7m2 0h4m1 0h1m1 0h1m1 0h1m2 0h5m1 0h2m1 0h1m1 0h1m2 0h1m-44 1h1m5 0h1m1 0h2m1 0h1m3 0h1m1 0h1m1 0h2m3 0h3m1 0h2m1 0h4m1 0h1m3 0h1m3 0h1m-45 1h1m1 0h3m1 0h1m1 0h1m1 0h1m1 0h4m2 0h8m1 0h4m1 0h1m1 0h8m-42 1h1m1 0h3m1 0h1m3 0h5m2 0h1m1 0h2m1 0h2m2 0h1m1 0h1m1 0h1m2 0h1m3 0h2m1 0h2m-42 1h1m1 0h3m1 0h1m6 0h1m2 0h1m1 0h2m4 0h2m2 0h4m1 0h1m3 0h2m1 0h3m-43 1h1m5 0h1m3 0h1m1 0h1m4 0h1m2 0h5m5 0h1m1 0h1m1 0h3m-37 1h7m4 0h3m3 0h1m1 0h1m6 0h2m4 0h1m3 0h1m7 0h1"/></svg>
